<svg id="Layer_1" data-name="Layer 1" xmlns="http://www.w3.org/2000/svg" xmlns:xlink="http://www.w3.org/1999/xlink" viewBox="0 0 167.82 176.58"><defs><style>.cls-1,.cls-2,.cls-3,.cls-4,.cls-5,.cls-6{stroke:#fff;stroke-miterlimit:10;}.cls-2{fill:url(#linear-gradient);}.cls-3{fill:url(#linear-gradient-2);}.cls-4{fill:url(#linear-gradient-3);}.cls-5{fill:url(#linear-gradient-4);}.cls-6{fill:#fff;}</style><linearGradient id="linear-gradient" x1="172.26" y1="164.78" x2="309.79" y2="164.78" gradientUnits="userSpaceOnUse"><stop offset="0" stop-color="#47802b"/><stop offset="1" stop-color="#7da443"/></linearGradient><linearGradient id="linear-gradient-2" x1="230.02" y1="85.64" x2="335.8" y2="85.64" xlink:href="#linear-gradient"/><linearGradient id="linear-gradient-3" x1="323.88" y1="88.39" x2="323.88" y2="88.39" xlink:href="#linear-gradient"/><linearGradient id="linear-gradient-4" x1="317.76" y1="99.08" x2="328.54" y2="99.08" xlink:href="#linear-gradient"/></defs><title>unique</title><path class="cls-1" d="M241.05,171.62" transform="translate(-171.62 -65.42)"/><path class="cls-2" d="M279.27,241.18c-13-25-13.88-44-10.09-58.4,5.78-21.95,23.17-38.63,20.48-41-1.64-1.42-9.43,4.12-14.06,8.56a47.21,47.21,0,0,0-6,7.18c-6.07,8.58-8.1,13.09-12.47,20.2a181.76,181.76,0,0,1-23.68,30.41c-3.11,3.21-35.73,37-49.84,29-11.54-6.52-4.45-41.43-3.67-45.25,5.14-24.91,17.42-40.43,13.76-43.41-1.36-1.11-5.12-.66-16.81,8.56l-4.59-4.28a63.68,63.68,0,0,1,26-23.85c8-3.93,12.05-5.89,14.67-4.28C224,131.49,183,209.77,194.27,217c8.07,5.2,37.74-29.73,50.64-44.9,6.1-7.19,18.06-21.9,14.79-26-2.83-3.57-14.15,4.5-18.42.45-5.34-5.09,2.82-26.93,18.23-40.8,14.74-13.28,38-21.71,43.6-15,6,7.25-10.35,30-14.36,35.46,1.75-.64,8.72-3,14.36.61,4.32,2.73,5.69,7.49,6.12,9.17,4.29,16.69-17.46,32.77-24.15,59-2.25,8.8-3.53,21.76,1.53,39.13Z" transform="translate(-171.62 -65.42)"/><path class="cls-3" d="M307.79,91.09a18.93,18.93,0,0,0-6.54-5.3c-12-5.81-30.58,2.28-46.77,19.57l10.18-29.42L230,73.56l52.28-7.64,53.5,2.14-31.31,7.47Z" transform="translate(-171.62 -65.42)"/><path class="cls-4" d="M323.88,88.39" transform="translate(-171.62 -65.42)"/><path class="cls-5" d="M324.49,127.36l-2.07-1.22-4.66-52.66,10.78-2.68c-1.66,6.41-5.28,15.87-5.89,24.77A140,140,0,0,0,324.49,127.36Z" transform="translate(-171.62 -65.42)"/><ellipse class="cls-6" cx="272.81" cy="118.01" rx="22.61" ry="7.18" transform="translate(-184.44 134.86) rotate(-39.46)"/></svg>